name C:\Users\antoi\Documents\MyRepositories\upper-imu-dc\Results\main_tracking\Case_97\kinematics.mot
datacolumns 43
datarows 4
range 3.00000000 3.06000000
endheader 
time	clav_prot	clav_elev	scapula_abduction	scapula_elevation	scapula_upward_rot	scapula_winging	plane_elv	shoulder_elv	axial_rot	TrapeziusScapula_M/activation	TrapeziusScapula_S/activation	TrapeziusScapula_I/activation	TrapeziusClavicle_S/activation	SerratusAnterior_I/activation	SerratusAnterior_M/activation	SerratusAnterior_S/activation	Rhomboideus_S/activation	Rhomboideus_I/activation	LevatorScapulae/activation	Coracobrachialis/activation	DeltoideusClavicle_A/activation	DeltoideusScapula_P/activation	DeltoideusScapula_M/activation	LatissimusDorsi_S/activation	LatissimusDorsi_M/activation	LatissimusDorsi_I/activation	PectoralisMajorClavicle_S/activation	PectoralisMajorThorax_I/activation	PectoralisMajorThorax_M/activation	TeresMajor/activation	Infraspinatus_I/activation	Infraspinatus_S/activation	PectoralisMinor/activation	TeresMinor/activation	Subscapularis_S/activation	Subscapularis_M/activation	Subscapularis_I/activation	Supraspinatus_P/activation	Supraspinatus_A/activation	TRIlong/activation	BIC_long/activation	BIC_brevis/activation	
          3.00000000	        -33.90406652	         -8.85449958	        -27.81210988	         -7.68815511	          8.72373770	          7.90949479	        -26.25520561	         13.97241190	         63.97672794	          0.01000056	          0.03004172	          0.03914182	          0.02381069	          0.04607782	          0.04712934	          0.02614367	          0.01563549	          0.01002379	          0.02834741	          0.01288355	          0.02656400	          0.01000380	          0.02992306	          0.01357542	          0.01189388	          0.01383909	          0.02695718	          0.01040563	          0.04109480	          0.01000600	          0.01515333	          0.01581433	          0.01000388	          0.01496443	          0.01388112	          0.01382252	          0.01010264	          0.01459007	          0.01354484	          0.01000605	          0.02166949	          0.01504160	
          3.02000000	        -31.20180474	         -9.56020597	        -28.09964040	         -7.61428969	          9.00620247	          7.80270472	        -26.80543838	         13.78826418	         63.72836203	          0.01000005	          0.03163374	          0.03627063	          0.02450544	          0.05319051	          0.05028401	          0.02402991	          0.01349888	          0.01000019	          0.02573668	          0.01176414	          0.02771036	          0.01000085	          0.03748454	          0.01283610	          0.01114342	          0.01338573	          0.02681396	          0.01000116	          0.03687620	          0.01000118	          0.01552808	          0.01497509	          0.01000009	          0.01748708	          0.01224162	          0.01513012	          0.01000177	          0.01492740	          0.01513711	          0.01000090	          0.02350799	          0.01444009	
          3.04000000	        -31.00863049	         -9.38946569	        -27.64832353	         -7.55056430	          9.31653920	          7.68857414	        -27.36992542	         13.62601392	         63.48658867	          0.01000247	          0.03228925	          0.02948632	          0.02442740	          0.05817263	          0.04608188	          0.01948651	          0.01375005	          0.01000168	          0.02051316	          0.01327202	          0.02952170	          0.01000071	          0.03801884	          0.01404050	          0.01295852	          0.01436836	          0.02438509	          0.01000188	          0.03531848	          0.01000081	          0.01559321	          0.01693001	          0.01000151	          0.01525284	          0.01017654	          0.01155936	          0.01000135	          0.01597028	          0.01733638	          0.01000058	          0.02598319	          0.01391652	
          3.06000000	        -30.82859053	         -9.21846408	        -27.19093273	         -7.50064514	          9.67633945	          7.56068384	        -27.97317487	         13.48363613	         63.22643764	          0.01000160	          0.03404689	          0.02637116	          0.02409113	          0.05966098	          0.04625714	          0.01901171	          0.01289494	          0.01000087	          0.01633466	          0.01302807	          0.03036555	          0.01000024	          0.03995347	          0.01433302	          0.01312135	          0.01478300	          0.02500686	          0.01000461	          0.03449913	          0.01000093	          0.01568698	          0.01823960	          0.01000146	          0.01771635	          0.01128919	          0.01392170	          0.01000214	          0.01655094	          0.01644223	          0.01000031	          0.02701535	          0.01375040	
